<?xml version="1.0" encoding="UTF-8" standalone="no"?>
<svg
   xmlns:dc="http://purl.org/dc/elements/1.1/"
   xmlns:cc="http://creativecommons.org/ns#"
   xmlns:rdf="http://www.w3.org/1999/02/22-rdf-syntax-ns#"
   xmlns:svg="http://www.w3.org/2000/svg"
   xmlns="http://www.w3.org/2000/svg"
   xmlns:sodipodi="http://sodipodi.sourceforge.net/DTD/sodipodi-0.dtd"
   xmlns:inkscape="http://www.inkscape.org/namespaces/inkscape"
   inkscape:version="1.0 (4035a4fb49, 2020-05-01)"
   sodipodi:docname="index.svg"
   viewBox="0 0 61.439999 61.439999"
   height="61.439999"
   width="61.439999"
   id="svg3772"
   version="1.1">
  <metadata
     id="metadata3778">
    <rdf:RDF>
      <cc:Work
         rdf:about="">
        <dc:format>image/svg+xml</dc:format>
        <dc:type
           rdf:resource="http://purl.org/dc/dcmitype/StillImage" />
        <dc:title></dc:title>
      </cc:Work>
    </rdf:RDF>
  </metadata>
  <defs
     id="defs3776" />
  <sodipodi:namedview
     inkscape:current-layer="g3780"
     inkscape:window-maximized="1"
     inkscape:window-y="-9"
     inkscape:window-x="-9"
     inkscape:cy="30.719999"
     inkscape:cx="30.719999"
     inkscape:zoom="13.509115"
     showgrid="false"
     id="namedview3774"
     inkscape:window-height="1001"
     inkscape:window-width="1920"
     inkscape:pageshadow="2"
     inkscape:pageopacity="0"
     guidetolerance="10"
     gridtolerance="10"
     objecttolerance="10"
     borderopacity="1"
     bordercolor="#666666"
     pagecolor="#ffffff" />
  <g
     id="g3780"
     inkscape:label="Image"
     inkscape:groupmode="layer">
    <path
       id="path4347"
       d="M 25.28,58.256793 C 14.223193,55.906511 5.9224223,48.102674 3.2197001,37.517158 c -0.9249997,-3.622867 -0.9249997,-9.971451 0,-13.594316 C 5.4247324,15.286583 11.88825,7.9040981 20,4.7567583 25.513669,2.6174678 30.565947,2.1048896 35.679999,3.1659461 46.886393,5.4910329 55.038313,13.124067 57.961865,24.029525 c 1.017513,3.795541 1.017513,9.585409 0,13.380948 -2.923552,10.905459 -11.075472,18.538492 -22.281866,20.86358 -3.568675,0.740423 -6.861213,0.73496 -10.399999,-0.01725 z"
       style="fill:#f5f5f5;fill-opacity:1;stroke-width:0.32" />
    <path
       id="path4345"
       d="M 20.8,39.395887 C 17.725003,38.741827 17.44,37.951631 17.44,30.08 c 0,-5.713701 0.05534,-6.334464 0.656145,-7.36 C 19.270988,20.714615 19.5556,20.6671 30.4,20.665918 c 11.343241,-0.0012 11.880012,0.08956 12.824367,2.16926 0.519415,1.14388 0.602538,2.145692 0.608605,7.3351 0.0077,6.61688 -0.22081,7.734957 -1.791613,8.764832 -0.808713,0.530221 -1.790739,0.590224 -10.506727,0.641949 C 26.246584,39.608438 21.416,39.526911 20.8,39.395887 Z m 0.005,-6.284009 c 0.770639,-1.246923 0.660827,-2.071879 -0.275795,-2.071879 -0.993573,0 -1.517415,1.074829 -1.364646,2.8 0.06886,0.777588 0.952172,0.38552 1.640441,-0.728121 z m 6.2484,0.08812 c -0.487572,-2.313096 -0.550112,-4.176146 -0.16438,-4.896892 0.604963,-1.130384 0.187062,-1.80246 -1.04684,-1.683546 L 24.8,26.72 24.70816,30.058366 c -0.05051,1.836102 -0.01903,3.528101 0.06996,3.760001 0.09291,0.242132 0.658349,0.421632 1.328159,0.421632 1.147532,0 1.162824,-0.0168 0.947144,-1.04 z M 42.170156,30.48 c -0.08987,-3.748043 -0.0927,-3.760264 -0.890157,-3.842896 -0.44,-0.04559 -1.009344,0.05304 -1.265212,0.219188 -0.403655,0.262113 -0.405072,0.414455 -0.01072,1.151323 0.553123,1.033524 0.556006,4.117524 0.0045,4.782087 -0.657082,0.791734 -0.152336,1.450297 1.111564,1.450297 h 1.140199 z m -10.5479,1.596729 c 0.08217,-0.575955 -0.05252,-0.71673 -0.685764,-0.71673 -0.890758,0 -1.31267,0.695824 -0.758146,1.250346 0.557533,0.557533 1.328906,0.272464 1.44391,-0.533616 z m 6.674415,-1.869025 c 0.275303,-0.717421 -0.447968,-1.077081 -2.177491,-1.082804 -1.492393,-0.0049 -2.461465,0.591826 -2.047843,1.261082 0.113539,0.18371 1.066454,0.334017 2.11759,0.334017 1.457159,0 1.95786,-0.121697 2.107744,-0.512295 z"
       style="fill:#e23834;fill-opacity:1;stroke-width:0.32" />
  </g>
</svg>
