<svg xmlns="http://www.w3.org/2000/svg" id="vector" width="48" height="48" version="1.1" viewBox="0 0 48 48"><path id="path" fill="#f5f5f5" fill-rule="evenodd" stroke-width="1.046" d="m24 24m-22 0c-0.015118-4.6415 1.4475-9.1662 4.1762-12.926 2.7287-3.7599 6.5875-6.5591 11.013-7.9945 4.4257-1.4392 9.1953-1.4392 13.621 0 4.4257 1.4354 8.2844 4.2346 11.013 7.9945 2.7287 3.7599 4.1914 8.2846 4.1762 12.926 0.01512 4.6415-1.4475 9.1662-4.1762 12.926-2.7287 3.7599-6.5875 6.5591-11.013 7.9945-4.4257 1.4392-9.1953 1.4392-13.621 0-4.4257-1.4354-8.2844-4.2346-11.013-7.9945s-4.1914-8.2846-4.1762-12.926"/><path id="path_1" fill="#ef5350" fill-rule="evenodd" stroke-width="1.547" d="m17.998 14.83c0-1.5409 1.1792-2.7917 2.6267-2.7917h8.3789c0.69541 0 1.3644 0.29386 1.8557 0.81754l4.369 4.649c0.4951 0.52368 0.771 1.232 0.771 1.9704v13.695c0 0.74219-0.2759 1.4505-0.76722 1.9741-0.4951 0.52368-1.1603 0.81754-1.8595 0.81754h-13.5c-0.29857 0-0.58203-0.12433-0.79367-0.35037-0.21165-0.22605-0.32881-0.52744-0.32881-0.84768 0-0.31647 0.11716-0.61786 0.32881-0.84391 0.21165-0.22605 0.4951-0.35037 0.79367-0.35037h13.5c0.10204 0 0.19653-0.04144 0.26834-0.11679 0.06803-0.07535 0.1096-0.17707 0.1096-0.28256v-11.562h-4.1271c-0.69541 0-1.3644-0.29386-1.8557-0.81754-0.49132-0.52368-0.76722-1.232-0.76722-1.9741v-4.3853h-6.3758c-0.09826 0-0.19653 0.04144-0.26456 0.11679-0.07181 0.07535-0.1096 0.17707-0.1096 0.28256v3.986c-0.0076 0.3127-0.1285 0.61409-0.33637 0.8326-0.21165 0.21851-0.4951 0.34284-0.7899 0.34284s-0.57825-0.12433-0.78989-0.34284c-0.20787-0.21851-0.32881-0.51991-0.33637-0.8326zm11.251-0.3014v4.2874c0 0.21851 0.17007 0.39935 0.37416 0.39935h4.0326c-0.0038-0.0075-0.01134-0.01507-0.01512-0.02261l-4.3728-4.6453c-0.0076-0.0075-0.01134-0.0113-0.0189-0.01884zm-8.6699 8.2281c-0.21165 0.22228-0.32881 0.52744-0.32881 0.84391 0 0.31646 0.11716 0.62163 0.32881 0.84391l2.2034 2.3471-2.2034 2.3434c-0.17763 0.17707-0.29857 0.41065-0.34392 0.66307-0.04157 0.25619-0.0076 0.51991 0.10204 0.74972 0.1096 0.22981 0.28724 0.41819 0.50266 0.53498 0.2192 0.11679 0.46487 0.15446 0.70675 0.10549 0.2381-0.04521 0.45731-0.1733 0.6236-0.36168l3.0008-3.191c0.20787-0.22228 0.32881-0.52744 0.32881-0.84391 0-0.31646-0.12094-0.62163-0.32881-0.84768l-3.0008-3.1873c-0.21165-0.22605-0.49888-0.35037-0.79745-0.35037-0.29479 0-0.58203 0.12433-0.79367 0.35037zm-3.6622 1.6878c0.20031-0.22605 0.30613-0.52368 0.30235-0.83261-0.0076-0.30893-0.12472-0.60656-0.32881-0.82507-0.20787-0.21851-0.48376-0.34284-0.77478-0.35037-0.29101-0.0038-0.57447 0.10926-0.78612 0.32023l-3.0008 3.191c-0.21165 0.22228-0.32881 0.52744-0.32881 0.84391 0 0.31647 0.11716 0.62163 0.32881 0.84391l3.0008 3.191c0.21165 0.21098 0.4951 0.324 0.78612 0.31646 0.29101-0.0038 0.56691-0.12809 0.77478-0.3466 0.20409-0.22228 0.32125-0.51614 0.32881-0.82507 0.0038-0.30893-0.10204-0.61033-0.30235-0.83637l-2.2034-2.3434z"/></svg>