<?xml version="1.0" encoding="UTF-8"?>
<svg width="512" height="512" desc="Created with imagetracer.js version 1.2.5" version="1.1" xmlns="http://www.w3.org/2000/svg">
 <path d="m289.5 86q15-2.5 19.5 5.5l3 6q-1.3 8.9 1 12.5l80.5 34 16.5 16.5 15.5 17.5 3 1 7-4h7q6.8 2.3 10.5 7.5 3 4 2 12-1.7 6.8-7 10v4l14 22v8l-5 21-2 19-2.5 2.5-31.5 20.5 2 20-10 26-2.5 3.5-16 5h-4l-9 4h-6q-1.7-2.7-8-1l-9-3h-6l-6-2-25-3-6-2q-3.2 0.8-2.5 5.5l2 7 3.5 3.5q6.4 0.7 8.5 5.5 2.3 3.2 1 10l-5 7v5l8 27v6.5h-4.5l-97-79-37-7-5.5-5.5-3-6-14.5-17.5-11 2-7.5 5.5q-0.6 5.9-4.5 8.5-3.7 3.3-12 2l-6.5-5.5q-3-3-2-10l-3.5-3.5q-18.7-9.2-34.5-21.5l-11-35-3-8-2.5-2.5q-12.7-1.2-18.5-9.5l-4-8v-8q2.4-9.6 9.5-14.5 6.2-4.8 19-3l3.5-2.5 18-26 6.5-6.5 66-54h9l10-2h16l1-1h16l11-2h16l10-2h9l8.5-2q1.2-9.2 7.5-14l4-2zm-22.5 21-10 2-31 1-1 1h-10l-1 1h-15l-29 5-60 50-9 9-17 25v3l5 5 3 11q1 8-2 13l-12 10 1 8 6 16v3l8 17 8 6 26 15h3l7-4q6-1 9 2l7 6 10-3 9-6 4 10 10 12 3 6q2 5 9 6l35 7h5l4 3 8 10v2l72 58 3-1-1-9-5-16-2-3-6-2q-5-3-6-8l1-6 6-7-6-22 15 4h7l5 2h5l18 4h6l12 3h8l22-7 8-9 7-19-1-13-3-4v-3l11-5 1-2 22-15 3-4 1-14 5-21-1-10-14-22-13-4q-5-4-7-10l1-5q1-7-2-9l-15-16-26-21-51-22-10-3-7-4h-4l-3 3-8 3h-4l-8-3-12-10h-7z"/>
 <path d="m190 185h27v10h-14.5l-0.5 0.5v65l1.5 1.5h13.5v10h-27v-87z"/>
 <path d="m353 185h26.5l0.5 0.5v86.5h-27v-10h13.5l0.5-0.5v-66.5h-14v-10z"/>
 <path d="m255.5 219 7 2 3.5 3.5q3.2 3.3 2 11l-5.5 7.5-7 2-7-2-3.5-3.5q-3.2-3.3-2-11l5.5-7.5 7-2z"/>
 <path d="m280 227h49.5l0.5 0.5v10.5h-49.5l-0.5-0.5v-10.5z"/>
 <path d="m146.5 242 8.5 3q2.9 2.9 2 10.5l-10 24.5h-9v-3.5l4-16q-5.3-2.2-4-11l2-4.5 6.5-3z"/>
</svg>
