<svg xmlns="http://www.w3.org/2000/svg" xmlns:svg="http://www.w3.org/2000/svg" id="svg3191" width="640" height="640" version="1.1" viewBox="0 0 640 640"><metadata id="metadata3197"/><g id="g3199"><g id="g3764"><path id="path3770" d="M 0,320 V 0 H 320 640 V 320 640 H 320 0 Z" style="fill:#e8e8e8"/><path id="path3768" d="M 0,320 V 0 H 320 640 V 320 640 H 320 0 Z m 465.34809,127.88517 c 0.90855,-2.81316 1.65191,-5.51316 1.65191,-6 C 467,441.37557 403.77992,441 318,441 c -85.77992,0 -149,0.37557 -149,0.88517 0,0.48684 0.74336,3.18684 1.65191,6 L 172.30381,453 H 318 463.69619 Z M 467.01168,429.25 c 0.0129,-0.82708 -4.77055,-15.57217 -6.08266,-18.75 -1.24006,-3.00334 -9.01822,-25.70306 -9.59433,-28 -0.27589,-1.1 -0.88912,-2.9 -1.36272,-4 -0.4736,-1.1 -2.50276,-6.95 -4.50924,-13 -2.00648,-6.05 -4.13247,-12.0125 -4.72442,-13.25 L 439.66204,350 H 318 196.33796 l -1.10993,2.25 c -0.61047,1.2375 -2.73251,7.2 -4.71565,13.25 -1.98314,6.05 -3.99715,11.9 -4.47558,13 -0.47843,1.1 -1.0956,2.9 -1.37149,4 -0.57611,2.29694 -8.35427,24.99666 -9.59433,28 -1.31211,3.17783 -6.09554,17.92292 -6.08266,18.75 0.0153,0.98078 298.00809,0.98078 298.02336,0 z M 176.57143,423.42857 C 175.70714,422.56429 175,420.61599 175,419.09903 c 0,-2.38115 3.36363,-13.39104 5.98768,-19.59903 0.46496,-1.1 1.07527,-2.9 1.35623,-4 0.28097,-1.1 3.22079,-9.875 6.53295,-19.5 4.47579,-13.0065 6.69132,-18.07774 8.62838,-19.75 l 2.60629,-2.25 h 75.00998 c 47.70744,0 75.68486,0.36119 76.86415,0.99232 2.72354,1.4576 4.0707,6.63456 5.14863,19.7855 0.52845,6.4472 1.35052,15.77218 1.82683,20.72218 2.3812,24.7463 2.40807,25.98795 0.60148,27.79454 C 357.98063,424.87651 351.35093,425 268,425 c -80.35498,0 -90.02332,-0.16617 -91.42857,-1.57143 z M 200.78216,413.75 c 0.56488,-0.6875 1.18248,-2.825 1.37245,-4.75 l 0.34539,-3.5 -5.62529,-0.29618 c -6.00873,-0.31637 -5.99288,-0.32838 -7.88747,5.97091 -0.44245,1.4711 -0.54558,2.9336 -0.22918,3.25 1.12164,1.12163 11.00376,0.5671 12.0241,-0.67473 z m 24.54347,0.5 c 0.24402,-0.4125 0.76013,-2.6625 1.14691,-5 L 227.1758,405 h -6.02889 c -3.31588,0 -6.22852,0.3375 -6.47254,0.75 -0.24402,0.4125 -0.76013,2.6625 -1.14691,5 L 212.8242,415 h 6.02889 c 3.31588,0 6.22852,-0.3375 6.47254,-0.75 z m 24.45914,-0.5 c 0.56632,-0.6875 1.18392,-2.825 1.37245,-4.75 l 0.34278,-3.5 -5.33118,-0.30507 C 239.66273,404.82262 238,406.02914 238,411.12244 V 415 h 5.37756 c 3.08622,0 5.81628,-0.53261 6.40721,-1.25 z m 25.60894,-2.81067 c 0.35713,-2.23337 0.38809,-4.48337 0.0688,-5 C 275.14321,405.4227 272.42239,405 269.41623,405 c -4.94697,0 -5.55829,0.24346 -6.44098,2.5651 -0.53639,1.4108 -0.97525,3.6608 -0.97525,5 0,2.32512 0.28729,2.4349 6.37219,2.4349 h 6.37219 z m 23.9453,3.31067 c 0.25137,-0.4125 0.61543,-2.55 0.80901,-4.75 l 0.35198,-4 h -6.5 -6.5 l -0.56912,4.26422 c -0.31301,2.34531 -0.35051,4.48281 -0.0833,4.75 0.79024,0.79024 11.99328,0.55328 12.49146,-0.26422 z M 324.5,410 v -4.5 h -6.5 -6.5 l -0.32046,3.3452 c -0.55012,5.74259 0.0922,6.28433 7.05752,5.95285 L 324.5,414.5 Z m 24.30479,0.25 L 348.5,405.5 h -6.5 -6.5 l 0.26478,3.5 c 0.43772,5.7861 0.69649,6 7.25863,6 h 6.08617 z m -142.40944,-17.5 c 0.79279,-1.2375 1.59067,-3.375 1.77305,-4.75 0.31127,-2.34675 0.0251,-2.51761 -4.6684,-2.78735 -5.51767,-0.3171 -6.64399,0.61346 -7.9523,6.57017 L 194.84109,395 h 5.0564 c 4.14991,0 5.31482,-0.40337 6.49786,-2.25 z m 23.46766,0.5 c 0.51336,-0.9625 1.09169,-3.1 1.28519,-4.75 l 0.3518,-3 h -5.34297 c -5.32265,0 -5.34812,0.015 -6.69538,3.93388 -0.74382,2.16363 -1.12542,4.30113 -0.84801,4.75 0.27742,0.44886 2.712,0.81612 5.41019,0.81612 3.64995,0 5.14474,-0.44799 5.83918,-1.75 z m 24.08441,-2 c 1.69088,-6.08857 1.57537,-6.25 -4.47217,-6.25 -5.01033,0 -5.61556,0.23884 -6.5,2.5651 -0.53639,1.4108 -0.97525,3.6608 -0.97525,5 0,2.28218 0.34201,2.4349 5.453,2.4349 5.44943,0 5.45367,-0.002 6.49442,-3.75 z m 22.50605,2.5 c 0.21489,-0.6875 0.67551,-2.96069 1.0236,-5.05154 l 0.6329,-3.80155 -5.76801,0.30155 c -5.70215,0.2981 -5.77661,0.3415 -6.52085,3.80154 -1.13228,5.26403 -0.49703,6 5.17889,6 3.17517,0 5.20844,-0.46605 5.45347,-1.25 z m 24.35132,-4 0.30479,-4.75 H 295.05479 289 v 5.0499 5.04991 l 5.75,-0.29991 5.75,-0.2999 z m 23.29136,4.82052 c 0.23621,-0.23622 0.2659,-2.48622 0.066,-5 L 323.79861,385 h -5.79427 -5.79427 l -0.44929,4.25 c -0.24712,2.3375 -0.26783,4.5875 -0.046,5 0.42037,0.7818 11.62993,1.07198 12.38139,0.32052 z M 347,390 v -5 h -6 -6 v 4.33333 c 0,2.38334 0.3,4.63334 0.66667,5 0.36666,0.36667 3.06666,0.66667 6,0.66667 H 347 Z M 212.30964,373.25 c 0.23523,-0.4125 0.73699,-2.46319 1.11504,-4.55708 l 0.68736,-3.80708 -4.80602,0.30708 c -4.51045,0.28819 -4.87623,0.52233 -5.94759,3.80708 -0.62786,1.925 -0.93881,3.8375 -0.69098,4.25 0.24782,0.4125 2.42247,0.75 4.83255,0.75 2.41008,0 4.57442,-0.3375 4.80964,-0.75 z m 22,0 c 0.23523,-0.4125 0.73218,-2.4375 1.10433,-4.5 l 0.67666,-3.75 h -4.42287 c -4.81721,0 -6.36191,1.15598 -6.68138,5 -0.32597,3.92232 -0.23945,4 4.4546,4 2.44254,0 4.63344,-0.3375 4.86866,-0.75 z m 22.70401,-1.5 c 0.008,-1.2375 0.29169,-3.28807 0.63149,-4.55682 0.59577,-2.22443 0.4261,-2.29586 -4.75098,-2 -5.35638,0.30611 -5.37021,0.31548 -5.97277,4.04886 -0.33218,2.05813 -0.37539,3.97063 -0.096,4.25 0.27937,0.27938 2.68295,0.50796 5.34129,0.50796 4.34163,0 4.83472,-0.22889 4.84698,-2.25 z m 22.16269,-1.80195 c 0.21253,-2.22858 0.1848,-4.25358 -0.0616,-4.5 C 278.86829,365.20162 276.53893,365 273.93837,365 h -4.7283 l -0.38641,4.05195 c -0.21253,2.22858 -0.1848,4.25358 0.0616,4.5 0.24642,0.24643 2.57578,0.44805 5.17634,0.44805 h 4.7283 l 0.38641,-4.05195 z M 301,369.5 V 365 h -5 -5 v 4.5 4.5 h 5 5 z m 22,0 V 365 h -5 -5 v 4.5 4.5 h 5 5 z m 22,0 V 365 h -5 -5 v 4.5 4.5 h 5 5 z m 57.63616,54.22322 c -1.66865,-1.22015 -2.66706,-4.0752 -4.71158,-13.47322 -0.50852,-2.3375 -1.37458,-6.275 -1.92458,-8.75 -0.55,-2.475 -1.40558,-6.4125 -1.90129,-8.75 -2.74844,-12.96019 -4.39702,-20.63504 -5.10158,-23.75 -0.43541,-1.925 -1.11317,-4.93267 -1.50613,-6.68371 -0.5907,-2.63212 -0.26986,-3.62834 1.8518,-5.75 L 391.90909,354 h 22.12238 22.12238 l 2.71483,2.75 c 2.01335,2.03944 4.36862,7.78853 9.11527,22.25 3.52025,10.725 6.74435,20.175 7.16467,21 C 456.88285,403.40389 461,417.01652 461,419.34654 461,424.85219 460.21878,425 431.1197,425 c -20.11062,0 -27.17021,-0.31645 -28.48354,-1.27678 z M 422.5218,411.25 c -0.38542,-2.0625 -1.1656,-4.3125 -1.73373,-5 -1.0311,-1.24775 -10.91127,-1.79346 -12.03975,-0.66499 -0.32176,0.32176 -0.13212,2.00926 0.42141,3.75 0.55353,1.74075 1.17766,3.72749 1.38696,4.41499 0.25056,0.82304 2.4787,1.25 6.52322,1.25 h 6.14267 z m 24.6466,0.75 c -0.18238,-1.375 -0.99509,-3.53514 -1.80602,-4.80032 -1.27823,-1.99422 -2.16555,-2.26035 -6.6684,-2 L 433.5,405.5 l 0.34539,3.5 c 0.52106,5.28016 1.70494,6.13089 8.06451,5.79513 5.32077,-0.28091 5.57412,-0.41558 5.2585,-2.79513 z m -29.95451,-17.54722 c 0.30097,-0.30097 -0.0112,-2.43847 -0.69371,-4.75 L 415.27925,385.5 H 409.88962 404.5 l 0.3518,3 c 0.63808,5.44124 1.78101,6.5 7.01672,6.5 2.63898,0 5.0444,-0.24625 5.34537,-0.54722 z M 441,394.02024 c 0,-0.53887 -0.73247,-2.8104 -1.62772,-5.04783 l -1.62772,-4.06807 -5.12228,0.29783 c -4.78751,0.27836 -5.09983,0.4567 -4.77879,2.72862 C 428.73154,394.21535 429.57862,395 435.47525,395 438.51386,395 441,394.55911 441,394.02024 Z M 411.15292,370.5 c -0.50821,-4.39279 -1.88128,-5.5 -6.82068,-5.5 h -4.42287 l 0.67666,3.75 c 0.9547,5.29096 1.07235,5.38597 6.25456,5.05109 4.53323,-0.29294 4.65001,-0.38233 4.31233,-3.30109 z m 21.9948,0.5 c -0.68908,-4.89017 -1.93361,-6 -6.72822,-6 h -4.51013 l 0.67666,3.75 c 0.9547,5.29096 1.07235,5.38597 6.25456,5.05109 4.33412,-0.28007 4.63482,-0.47562 4.30713,-2.80109 z M 438,331.64922 c 0,-7.86712 -1.15709,-12.49961 -4.22105,-16.89922 L 431.86381,312 H 317.37688 202.88994 l -2.44497,5.52851 C 198.51851,321.88458 198,324.74756 198,331.02851 V 339 H 318 438 Z M 247.57143,322.42857 C 245.46467,320.32182 245.59228,318.40772 248,316 c 1.96078,-1.96078 3.33333,-2 70,-2 66.66667,0 68.03922,0.0392 70,2 2.40772,2.40772 2.53533,4.32182 0.42857,6.42857 C 387.03043,323.82671 379.26407,324 318,324 c -61.26407,0 -69.03043,-0.17329 -70.42857,-1.57143 z M 430.61151,295.75 c -0.7274,-5.9395 -1.8339,-22.01518 -5.55807,-80.75 -0.61029,-9.625 -1.54233,-22.675 -2.07121,-29 -0.52888,-6.325 -0.96624,-14.91776 -0.97191,-19.09501 -0.012,-8.81614 0.1815,-8.55361 -11.28912,-15.31783 L 402.9424,147 H 318 233.0576 l -7.7788,4.58716 C 213.97025,158.25581 214,158.21791 214,165.95509 c 0,3.65482 -0.44705,12.47257 -0.99344,19.59502 -0.92226,12.02215 -1.7389,24.13197 -4.04281,59.94989 -2.30306,35.80485 -2.91733,44.39698 -3.55674,49.75 l -0.68682,5.75 h 113.26714 113.26713 z m -219.75735,-0.89584 c -2.35622,-2.35622 -2.35495,-2.61395 0.19326,-39.35416 0.53406,-7.7 1.40922,-20.75 1.94482,-29 3.48509,-53.6826 4.13823,-60.33834 6.039,-61.54047 1.98037,-1.25247 195.96857,-1.24519 197.94954,0.007 1.81741,1.14919 2.37178,6.86448 6.01703,62.03304 0.52695,7.975 1.38316,20.8 1.90269,28.5 2.61225,38.71651 2.60161,36.99789 0.24367,39.35583 L 423,297 H 318 213 Z M 416.18812,277.5 c -0.1359,-4.95 -0.67984,-14.175 -1.20876,-20.5 -1.14441,-13.68523 -2.76721,-38.40032 -3.97244,-60.5 -0.47992,-8.8 -1.18406,-17.4625 -1.56475,-19.25 L 408.75,174 h -90.75837 -90.75837 l -0.62142,2.25 c -0.34178,1.2375 -1.05792,9.9 -1.59142,19.25 -0.53349,9.35 -1.68807,27.35 -2.56573,40 -2.15827,31.10788 -3.15697,49.84488 -2.70529,50.75489 0.20607,0.41519 44.54468,0.64019 98.53025,0.5 L 416.43521,286.5 Z m -147.30796,5.09982 c -5.29091,-0.62638 -10.46591,-1.78259 -11.5,-2.56934 -4.46009,-3.39332 -7.66624,-6.73343 -9.14822,-9.53048 -3.78101,-7.13617 -5.46814,-46.33992 -2.88433,-67.02301 2.18936,-17.52559 7.50053,-23.50863 22.65239,-25.51794 11.34847,-1.50494 88.65153,-1.50494 100,0 15.33345,2.03339 20.49992,7.96955 22.63473,26.00676 2.57076,21.72063 0.91747,59.35144 -2.92972,66.68382 -1.95051,3.71749 -9.28925,10.24845 -12.17819,10.83772 -12.90129,2.63153 -87.26344,3.40723 -106.64666,1.11247 z m 29.5576,-33.18044 c 1.86907,-1.86907 1.25962,-3.20374 -2.0349,-4.45631 C 294.04378,244.06615 294,243.82327 294,231.63316 v -12.41634 l 2.56492,-0.64376 c 1.93512,-0.48568 2.48759,-1.18754 2.25,-2.85841 C 298.53779,213.76573 297.90008,213.5 293.5,213.5 h -5 l -0.27454,17.46487 c -0.15099,9.60567 -0.0526,18.04317 0.21862,18.75 0.70753,1.84379 8.07215,1.62604 9.99368,-0.29549 z m 79.46392,0.19909 c 0.78963,-0.95144 1.06123,-6.7885 0.87244,-18.75 L 378.5,213.5 l -4.3239,-0.31111 c -6.81847,-0.49059 -9.32615,3.66297 -3.53972,5.86296 C 372.92246,219.92102 373,220.30948 373,230.89346 373,242.49688 372.55913,245 370.51546,245 c -0.69882,0 -1.7912,0.62732 -2.42753,1.39405 -0.89327,1.07633 -0.79094,1.76008 0.44898,3 1.96894,1.96894 7.80095,2.1087 9.36477,0.22442 z m -113.97507,-4.9902 c 3.91843,-6.8487 3.99752,-8.86773 0.33078,-8.44469 -3.12111,0.36009 -4.804,3.1289 -5.84014,9.60857 -0.98033,6.13065 1.6543,5.57407 5.50936,-1.16388 z m 58.44926,-2.85951 c 1.47574,-2.34341 -1.31357,-5.2407 -4.17198,-4.33347 -2.75099,0.87313 -3.44865,3.17709 -1.54002,5.08572 1.90501,1.90502 4.23156,1.59862 5.712,-0.75225 z m 34.09548,-10.12415 c 1.13487,-0.82984 1.6089,-1.9931 1.22251,-3 -0.89616,-2.33538 -19.4454,-2.45566 -20.33712,-0.13188 -0.31927,0.83201 -0.0251,2.18201 0.65383,3 1.64599,1.9833 15.79063,2.08434 18.46078,0.13188 z M 248,157 c -1.1,-1.1 -2,-2.45 -2,-3 0,-0.55 0.9,-1.9 2,-3 1.96078,-1.96078 3.33333,-2 70,-2 66.66667,0 68.03922,0.0392 70,2 1.1,1.1 2,2.45 2,3 0,0.55 -0.9,1.9 -2,3 -1.96078,1.96078 -3.33333,2 -70,2 -66.66667,0 -68.03922,-0.0392 -70,-2 z" style="fill:#e13733"/><path id="path3766" d="m 162.63787,462.75 c -0.77453,-1.2375 -3.28586,-7.95354 -5.58073,-14.92454 l -4.17249,-12.67455 5.63314,-16.32545 c 3.09822,-8.979 7.56106,-21.95046 9.91742,-28.82546 2.35635,-6.875 6.79517,-19.70638 9.86405,-28.51419 5.1245,-14.70756 5.65977,-17.08151 6.56029,-29.0956 0.86477,-11.53712 1.36441,-13.8965 4.23235,-19.98581 2.96422,-6.29372 3.31968,-8.09845 4.01892,-20.4044 0.42189,-7.425 1.03093,-17.325 1.35343,-22 0.32249,-4.675 1.25386,-19.525 2.06971,-33 0.81585,-13.475 1.73969,-27.2 2.05299,-30.5 0.31329,-3.3 1.01565,-13.2 1.5608,-22 1.58574,-25.59765 2.27453,-32.1052 3.56202,-33.65332 0.66538,-0.80007 6.3424,-4.69287 12.61561,-8.65067 L 227.73121,135 H 318 408.26879 l 11.40583,7.19601 c 6.27321,3.9578 11.95023,7.85163 12.61561,8.65295 1.26194,1.51977 1.97515,8.2049 3.64344,34.15104 2.20549,34.30092 3.06263,46.77447 3.60761,52.5 0.31411,3.3 1.0379,14.325 1.60843,24.5 2.60078,46.38337 2.19976,42.87019 5.75352,50.4044 2.87455,6.09422 3.37175,8.43939 4.23722,19.98581 0.89597,11.95331 1.44731,14.41932 6.3933,28.5956 2.97703,8.53281 7.4737,21.58919 9.99261,29.01419 2.5189,7.425 7.05688,20.62146 10.08441,29.32546 l 5.50458,15.82545 -4.17249,12.67455 c -2.29487,6.971 -4.8062,13.68704 -5.58073,14.92454 L 471.95389,465 H 318 164.04611 Z m 301.13233,-10 c 2.07373,-2.55362 4.07806,-10.20441 3.01274,-11.5 C 465.96913,440.26028 434.98924,440 318,440 c -116.98924,0 -147.96913,0.26028 -148.78294,1.25 -1.06532,1.29559 0.93901,8.94638 3.01274,11.5 0.8036,0.98957 31.17416,1.25 145.7702,1.25 114.59604,0 144.9666,-0.26043 145.7702,-1.25 z m 2.93853,-22.85873 c 0.81164,-0.81164 0.57076,-2.62034 -0.89894,-6.75 -1.10422,-3.1027 -2.37732,-6.99127 -2.82911,-8.64127 -0.4518,-1.65 -2.92229,-8.85 -5.48999,-16 -2.5677,-7.15 -5.04939,-14.35 -5.51486,-16 -2.46588,-8.74093 -10.4204,-30.23567 -11.74967,-31.75 C 438.77911,349.10149 431.69102,349 318,349 c -113.68101,0 -120.78076,0.10163 -122.25243,1.75 -1.34055,1.50152 -9.14205,22.63436 -11.72098,31.75 -0.4668,1.65 -2.94958,8.85 -5.51728,16 -2.5677,7.15 -5.03819,14.35 -5.48999,16 -0.45179,1.65 -1.72489,5.53857 -2.82911,8.64127 -1.4697,4.12966 -1.71058,5.93836 -0.89894,6.75 1.57997,1.57997 295.83749,1.57997 297.41746,0 z M 176.6719,423.33856 c -1.5218,-1.52179 -0.48514,-8.53695 2.42861,-16.43466 1.70529,-4.62214 3.47431,-9.7539 3.93118,-11.4039 3.03981,-10.97852 12.49069,-36.38875 14.2287,-38.25616 l 2.09982,-2.25617 76.55649,0.25617 76.55649,0.25616 1.31566,2.74517 c 0.72361,1.50985 1.71996,7.80985 2.21412,14 0.49415,6.19016 1.45815,16.87983 2.14222,23.75483 0.68407,6.875 1.26875,15.875 1.29929,20 l 0.0555,7.5 -91.0781,0.25523 c -50.09296,0.14038 -91.38046,-0.0471 -91.75,-0.41667 z m 24.38507,-9.39553 c 1.49262,-1.49262 1.97275,-3.07018 1.75,-5.75 L 202.5,404.5 l -5.23327,-0.30168 c -4.97904,-0.28702 -5.33106,-0.14128 -7.24626,3 -2.01332,3.30221 -2.60873,6.88008 -1.3538,8.13501 0.36666,0.36667 2.84166,0.66667 5.5,0.66667 3.54462,0 5.38178,-0.54845 6.8903,-2.05697 z M 225.786,414.75 c 0.56699,-0.6875 1.18459,-3.275 1.37244,-5.75 l 0.34156,-4.5 -5.35932,-0.30605 c -3.84385,-0.21951 -5.85893,0.14608 -7.12612,1.29287 -2.24363,2.03046 -3.42432,8.63379 -1.73559,9.70676 1.98181,1.25916 11.37758,0.92593 12.50703,-0.44358 z m 24.75958,-1.17923 c 0.89243,-1.36201 1.45171,-3.8881 1.27306,-5.75 -0.31585,-3.29164 -0.36829,-3.32338 -5.97886,-3.61799 -4.93421,-0.25911 -5.86413,-0.006 -7.25,1.9725 -1.59805,2.28154 -2.16592,7.91525 -0.92311,9.15805 0.36666,0.36667 3.05629,0.66667 5.97694,0.66667 4.51956,0 5.54729,-0.36172 6.90197,-2.42923 z m 24.19126,1.17923 c 1.65155,-2.10285 2.3611,-7.92706 1.14435,-9.39316 -1.55254,-1.87069 -10.31975,-1.77542 -12.22805,0.13287 -2.1523,2.1523 -3.07305,7.29941 -1.61915,9.05125 1.52462,1.83705 11.29793,1.99788 12.70285,0.20904 z m 25.20182,-0.1761 c 0.65096,-0.78435 1.04356,-3.37185 0.87245,-5.75 L 300.5,404.5 l -5.83437,-0.30242 c -3.4411,-0.17837 -6.41507,0.17951 -7.25,0.87244 -1.43403,1.19014 -2.00452,9.00776 -0.74896,10.26331 1.32193,1.32194 12.05428,0.70783 13.27199,-0.75943 z M 324.8,414.8 c 0.66,-0.66 1.2,-2.82 1.2,-4.8 0,-4.90855 -1.45527,-6 -8,-6 -3.08,0 -6.14,0.54 -6.8,1.2 -1.55247,1.55247 -1.55247,8.04753 0,9.6 1.55804,1.55804 12.04196,1.55804 13.6,0 z m 25.00149,-3.42708 C 350.21445,405.72001 348.30781,404 341.62857,404 c -6.34995,0 -7.63938,1.09534 -6.90779,5.86798 0.85786,5.59639 1.8255,6.25638 8.68785,5.92562 L 349.5,415.5 Z M 207.03529,392.75 c 1.10325,-1.7875 1.88413,-4.375 1.73531,-5.75 -0.24002,-2.21744 -0.79479,-2.53393 -4.90852,-2.80021 -4.02572,-0.26059 -4.91671,0.0542 -6.75,2.38485 -2.03515,2.58728 -2.82515,7.36895 -1.44541,8.74869 0.36666,0.36667 2.62328,0.66667 5.0147,0.66667 3.82733,0 4.58824,-0.3892 6.35392,-3.25 z m 23.00999,1.69544 c 0.70959,-0.855 1.32719,-3.4425 1.37244,-5.75 L 231.5,384.5 l -4.82769,-0.30796 c -2.65524,-0.16938 -5.41158,0.17661 -6.12521,0.76887 -1.44086,1.19581 -2.91956,8.62741 -2.0096,10.09976 0.98818,1.59892 10.07331,1.11321 11.50778,-0.61523 z m 22.87429,0.15148 c 2.03224,-2.4487 3.15204,-7.80571 1.93755,-9.26908 -1.50388,-1.81206 -9.3433,-1.6988 -11.20398,0.16187 -2.1523,2.1523 -3.07305,7.29941 -1.61915,9.05125 1.56947,1.89109 9.32945,1.93098 10.88558,0.056 z M 276.7843,394.75 c 1.30134,-1.58053 1.87158,-7.87974 0.86131,-9.5144 -1.00329,-1.62336 -10.10463,-1.61185 -11.3844,0.0144 -1.56942,1.99431 -2.21975,8.39146 -0.97919,9.63202 1.51993,1.51993 10.2244,1.42003 11.50228,-0.13202 z M 300.8,394.8 c 0.66,-0.66 1.2,-2.82 1.2,-4.8 0,-4.74966 -1.45873,-6 -7,-6 -2.53,0 -5.14,0.54 -5.8,1.2 -1.59719,1.59719 -1.55827,9.48877 0.05,10.13772 2.48399,1.00231 10.37745,0.63483 11.55,-0.53772 z m 24.01111,-3.6239 c 0.17111,-2.37815 -0.22149,-4.96565 -0.87245,-5.75 -1.45839,-1.75727 -10.04217,-1.92259 -11.73866,-0.2261 -1.28983,1.28983 -1.66211,9.00455 -0.49104,10.17563 0.38993,0.38992 3.42743,0.57742 6.75,0.41666 L 324.5,395.5 Z m 21.6071,4.21691 c 1.92148,-0.73734 2.20728,-8.36752 0.38179,-10.19301 -0.66,-0.66 -3.27,-1.2 -5.8,-1.2 -2.53,0 -5.14,0.54 -5.8,1.2 -1.55247,1.55247 -1.55247,8.04753 0,9.6 1.25544,1.25544 8.49471,1.63812 11.21821,0.59301 z M 211.82232,374.13098 c 1.42714,-0.90487 3.37395,-8.00439 2.55729,-9.32578 -0.88559,-1.43291 -8.17769,-0.86427 -9.80668,0.76473 -1.89506,1.89506 -3.00321,5.86639 -2.21216,7.92783 0.63195,1.64685 7.17248,2.08457 9.46155,0.63322 z M 234.77896,373.75 c 0.56312,-0.6875 1.18072,-3.05 1.37244,-5.25 l 0.3486,-4 -4.65756,-0.30102 c -3.90341,-0.25227 -4.91541,0.0671 -6.25,1.97251 -1.61603,2.3072 -2.14213,6.94548 -0.92577,8.16184 1.16945,1.16946 9.04891,0.71493 10.11229,-0.58333 z m 22.0032,0 c 1.32671,-1.6147 1.86777,-6.88937 0.87198,-8.5006 -0.98587,-1.59516 -8.87112,-1.63242 -10.45414,-0.0494 -1.26973,1.26973 -1.66295,8.00371 -0.53333,9.13333 1.16936,1.16936 9.04875,0.71498 10.11549,-0.58333 z m 22.15992,-0.18021 c 0.65283,-0.78662 1.04543,-3.14912 0.87245,-5.25 -0.30738,-3.73293 -0.41286,-3.82686 -4.63843,-4.1309 -2.37815,-0.17111 -4.96565,0.22149 -5.75,0.87245 -1.43715,1.19272 -1.99749,8.03394 -0.75943,9.27199 1.26432,1.26433 9.07405,0.684 10.27541,-0.76354 z M 300.8,373.8 c 0.66,-0.66 1.2,-2.595 1.2,-4.3 0,-4.04667 -1.58545,-5.5 -6,-5.5 -1.98,0 -4.14,0.54 -4.8,1.2 -1.26973,1.26973 -1.66295,8.00371 -0.53333,9.13333 1.1384,1.13841 8.86843,0.73157 10.13333,-0.53333 z m 22,0 c 0.66,-0.66 1.2,-2.595 1.2,-4.3 0,-4.04667 -1.58545,-5.5 -6,-5.5 -4.41455,0 -6,1.45333 -6,5.5 0,4.04667 1.58545,5.5 6,5.5 1.98,0 4.14,-0.54 4.8,-1.2 z m 23.01453,-3.11979 C 346.21685,365.79414 344.67604,364 340.07756,364 335.58695,364 334,365.43614 334,369.5 c 0,4.34454 1.71201,5.64047 6.99479,5.29479 4.43919,-0.29047 4.50982,-0.35076 4.81974,-4.11458 z m 56.45484,52.08513 c -0.96504,-1.2199 -1.25304,-2.21791 -3.32311,-11.51534 -2.46132,-11.05468 -3.00828,-13.54246 -3.84755,-17.5 -2.79405,-13.17527 -4.40989,-20.69319 -5.21209,-24.25 -2.17543,-9.64541 -2.2003,-10.49591 -0.36615,-12.52262 1.68243,-1.85907 3.14596,-1.97738 24.4602,-1.97738 22.21923,0 22.71267,0.0448 24.77825,2.25 1.19767,1.27862 4.91634,10.66859 8.61356,21.75 3.5783,10.725 7.90907,23.46172 9.62392,28.30382 1.92051,5.4228 2.99995,10.22331 2.81076,12.5 L 459.5,423.5 l -28.11482,0.26534 c -21.73702,0.20515 -28.34189,-0.0217 -29.11581,-1 z m 20.55776,-7.63734 c 1.04674,-0.66361 1.09804,-1.69217 0.24283,-4.8682 -1.46925,-5.45636 -2.94486,-6.42504 -9.23878,-6.06487 L 408.5,404.5 l 0.29019,4.44596 c 0.1596,2.44527 0.7772,5.03277 1.37244,5.75 1.21,1.45796 10.54402,1.77638 12.6645,0.43204 z M 447.7706,413 c 0.14882,-1.375 -0.6462,-3.98576 -1.76673,-5.80168 -1.93683,-3.13881 -2.29548,-3.2868 -7.2706,-3 -5.12564,0.29548 -5.23982,0.36998 -5.55191,3.62245 -0.1807,1.88327 0.38408,4.39325 1.30469,5.79828 1.46013,2.22844 2.19585,2.44751 7.31863,2.17922 5.24332,-0.2746 5.7168,-0.49668 5.96592,-2.79827 z m -30.56079,-21.94596 c -0.40343,-6.18101 -1.54263,-7.20507 -7.62099,-6.85071 L 404.5,384.5 l 0.0823,4.19544 c 0.11843,6.03913 1.68429,7.45945 7.8289,7.10123 L 417.5,395.5 Z M 440.7706,393 c 0.14882,-1.375 -0.64685,-3.98682 -1.76817,-5.80405 -1.90134,-3.08132 -2.35775,-3.28355 -6.7706,-3 L 427.5,384.5 l 0.11613,3.77334 c 0.17177,5.58107 2.72711,7.88865 8.33115,7.52339 4.02384,-0.26226 4.58415,-0.58715 4.82332,-2.79673 z m -28.94794,-21.31464 c 0.17746,-1.54804 -0.41088,-3.93415 -1.30742,-5.30244 -1.41354,-2.15734 -2.25342,-2.44764 -6.32266,-2.18537 L 399.5,364.5 l 0.3486,4 c 0.48827,5.60276 1.66196,6.64924 7.06381,6.29816 4.20221,-0.27311 4.6147,-0.53461 4.91025,-3.1128 z m 21.81657,1.8124 c 0.79105,-2.06144 -0.3171,-6.03277 -2.21216,-7.92783 -1.62899,-1.629 -8.92109,-2.19764 -9.80668,-0.76473 -0.81666,1.32139 1.13015,8.42091 2.55729,9.32578 2.28907,1.45135 8.8296,1.01363 9.46155,-0.63322 z M 437.8,338.8 c 1.67781,-1.67781 1.50474,-12.68483 -0.27895,-17.74034 -0.81343,-2.30549 -2.41907,-5.51207 -3.5681,-7.12573 L 431.86381,311 H 318.08689 c -128.47816,0 -115.04049,-0.94084 -119.01541,8.33291 -2.35315,5.49007 -2.88856,17.45001 -0.87148,19.46709 1.74246,1.74246 237.85754,1.74246 239.6,0 z M 247.67337,322.34004 c -1.09221,-1.09221 -0.77051,-4.8429 0.52663,-6.14004 0.91004,-0.91004 17.79501,-1.2 69.87756,-1.2 74.2298,0 71.51391,-0.19942 70.7492,5.19496 L 388.5,322.5 l -70.07663,0.2567 c -38.54215,0.14119 -70.37965,-0.0463 -70.75,-0.41666 z m 183.34674,-21.86427 c 0.99829,-1.20287 1.02411,-2.98283 0.12244,-8.44262 C 430.51415,288.22802 430,281.84716 430,277.85344 c 0,-3.99371 -0.44531,-12.00703 -0.98957,-17.80737 C 428.46617,254.24573 427.55325,241.85 426.98172,232.5 426.4102,223.15 425.2805,206.09415 424.47129,194.59812 423.66208,183.10209 423,170.81 423,167.28238 c 0,-3.52763 -0.46161,-7.27639 -1.0258,-8.33059 -0.5642,-1.05421 -5.24459,-4.39962 -10.40088,-7.43426 L 402.19824,146 H 318 233.80176 l -9.37508,5.51753 c -5.15629,3.03464 -9.83668,6.38005 -10.40088,7.43426 -0.56419,1.0542 -1.0258,4.57813 -1.0258,7.83095 0,3.25283 -0.65504,15.54491 -1.45564,27.31575 -0.8006,11.77083 -1.92806,28.60151 -2.50548,37.40151 -0.57741,8.8 -1.50111,21.4 -2.05265,28 -0.55155,6.6 -0.99908,14.79412 -0.99452,18.20915 0.005,3.41504 -0.49647,9.60294 -1.11341,13.7509 -0.87629,5.89178 -0.8495,7.86973 0.12245,9.04085 C 206.09274,301.81667 219.91198,302 318,302 c 98.90734,0 111.90054,-0.17523 113.02011,-1.52423 z M 210.96996,294.4638 c -1.32616,-1.59792 -1.15197,-8.0939 1.07166,-39.9638 0.53725,-7.7 1.41502,-20.75 1.95062,-29 1.67044,-25.73063 3.03937,-44.70474 3.78774,-52.5 L 218.5,165.5 h 99.5 99.5 l 0.71183,8 c 0.75724,8.51028 2.2156,28.73328 3.78598,52.5 0.52695,7.975 1.39836,21.025 1.93646,29 2.31796,34.35351 2.41563,37.87347 1.09506,39.46466 C 423.89835,295.8274 411.86654,296 318,296 224.10783,296 212.10188,295.82768 210.96996,294.4638 Z M 416.82793,279.5 c 0.18036,-4.4 -0.14146,-13.4 -0.71515,-20 -0.57369,-6.6 -1.74202,-24.15 -2.59628,-39 -1.88169,-32.70993 -3.0258,-44.20381 -4.58738,-46.08541 -1.01067,-1.21777 -14.29648,-1.38803 -91.29254,-1.16988 l -90.10974,0.25529 -1.28168,2.67426 c -0.7462,1.55695 -1.69397,10.12186 -2.26847,20.5 -0.54274,9.80416 -1.68337,27.72574 -2.53474,39.82574 -2.06598,29.36247 -2.85316,47.98602 -2.11012,49.92236 0.5516,1.43744 9.89645,1.56336 98.88867,1.33254 L 416.5,287.5 Z m -148.65107,2.11005 c -8.30129,-0.98838 -9.75693,-1.4753 -13.28099,-4.44254 -2.17682,-1.83286 -4.70036,-4.46569 -5.60787,-5.85072 -5.71693,-8.72513 -5.50931,-72.42396 0.2682,-82.28655 3.6633,-6.25349 8.05949,-8.78828 17.4438,-10.05784 11.44606,-1.5485 90.55394,-1.5485 102,0 9.38045,1.26904 13.78056,3.80448 17.43821,10.04827 4.11377,7.02241 5.92075,46.12446 3.18766,68.97933 -1.44642,12.09547 -2.00942,13.40717 -8.02859,18.70545 -4.34636,3.82582 -4.68711,3.93529 -15.88107,5.10213 -14.32547,1.49326 -84.53289,1.35108 -97.53935,-0.19753 z M 264.63952,244.5 c 4.34492,-7.81312 4.30341,-8.69877 -0.38952,-8.31037 -3.61969,0.29958 -3.81382,0.51202 -5.58669,6.11326 -3.32471,10.50415 0.562,11.93307 5.97621,2.19711 z M 298.8,249.8 c 1.92112,-1.92112 1.40335,-3.59357 -1.55,-5.00673 -2.72411,-1.30347 -2.7527,-1.41927 -3.03633,-12.30067 l -0.28633,-10.98482 3.19839,-2.61039 c 2.04151,-1.66621 2.9841,-3.1688 2.60595,-4.15423 -0.77759,-2.02637 -7.95758,-3.22781 -10.65682,-1.78323 -1.9805,1.05994 -2.07486,1.91983 -2.07486,18.90859 0,9.78898 0.3,18.09815 0.66667,18.46481 1.14564,1.14565 9.8724,0.7276 11.13333,-0.53333 z m 79.97188,-18.00058 0.27189,-18.70058 -3.28229,-0.61576 c -7.01259,-1.31557 -12.3236,4.21211 -6.26148,6.51692 2.47576,0.94128 2.5,1.06733 2.5,13 0,11.93267 -0.0242,12.05872 -2.5,13 -2.38576,0.90706 -3.35246,3.81421 -1.78841,5.37825 0.39137,0.39138 2.97887,0.57888 5.75,0.41667 L 378.5,250.5 Z M 322.5,240.5 c 0,-2.64153 -0.34544,-3 -2.89101,-3 -3.63716,0 -5.56896,2.63838 -3.6366,4.96674 0.77893,0.93854 2.45723,1.50641 3.94201,1.33382 2.13943,-0.2487 2.5856,-0.81824 2.5856,-3.30056 z m 35.31642,-10.75 0.31642,-2.75 H 347.56642 C 337.1635,227 337,227.03611 337,229.33333 c 0,1.28334 0.31521,2.64854 0.70046,3.0338 0.38525,0.38525 4.99775,0.57275 10.25,0.41666 L 357.5,232.5 Z M 248.20678,156.80678 c -1.60347,-1.60347 -1.53068,-4.29308 0.15404,-5.69127 0.98877,-0.82061 20.16514,-1.05913 70.14111,-0.87244 64.25533,0.24003 68.85291,0.37206 69.88407,2.00693 0.80503,1.27635 0.80503,2.22365 0,3.5 -1.03121,1.63494 -5.63597,1.76688 -70.0381,2.00678 -52.78513,0.19663 -69.21705,-0.0259 -70.14112,-0.95 z" style="fill:#171615"/></g></g></svg>