<svg xmlns="http://www.w3.org/2000/svg" width="512" height="512" desc="Created with imagetracer.js version 1.2.5" version="1.1"><path d="M 164.5 71 L 343.5 71 L 368 87.5 L 370 95.5 L 370 106.5 L 371 107.5 L 371 121.5 L 372 122.5 L 373 151.5 L 374 152.5 L 374 165.5 L 375 166.5 L 375 179.5 L 376 180.5 L 379 239.5 L 386 258.5 L 387 276.5 L 390 289.5 L 415 359.5 L 418 368.5 L 418 373.5 L 408 401 L 100.5 401 L 100 399.5 L 92 380.5 L 90 373.5 L 90 368.5 L 118 289.5 L 121 276.5 L 122 258.5 L 129 239.5 L 138 95.5 Q 140.3 94.3 139 89.5 L 142.5 85 L 164.5 71 Z M 169 82 L 154 91 L 149 96 Q 151 102 148 104 L 148 123 L 147 124 L 147 139 L 146 140 L 146 154 L 145 155 L 145 168 L 144 169 L 144 182 L 143 183 L 142 214 L 141 215 L 140 237 L 144 238 L 365 238 L 368 237 L 367 215 L 366 214 L 366 197 L 365 196 L 365 185 L 364 184 L 364 170 L 363 169 L 363 155 L 362 154 L 362 140 L 361 139 L 361 125 L 360 124 L 359 96 L 355 91 L 340 82 L 169 82 Z M 146 247 L 138 249 L 134 256 L 133 268 L 132 269 L 133 275 L 137 276 L 216 276 L 217 277 L 372 276 L 375 275 L 375 260 L 370 249 L 369 247 L 146 247 Z M 135 285 L 131 286 L 124 304 L 104 365 L 108 367 L 226 367 L 227 368 L 401 367 L 404 365 L 385 307 L 377 286 L 374 285 L 135 285 Z M 107 376 L 104 379 L 107 389 L 111 390 L 398 390 L 401 389 L 404 379 L 402 376 L 107 376 Z"/><path d="M 185.5 87 L 319.5 87 L 324 88 Q 326.3 94 319.5 92 L 318.5 93 L 185.5 93 Q 183.3 92.3 184 88.5 L 185.5 87 Z"/><path d="M 155 102 L 352.5 102 Q 353.5 102 353 106.5 L 354 107.5 L 354 118.5 L 355 119.5 L 358 176.5 L 359 177.5 L 359 191.5 L 360 192.5 L 360 206.5 L 361 207.5 L 361 230 L 358.5 231 L 217.5 232 L 216.5 231 L 148.5 231 L 147 229.5 L 147 206.5 L 148 205.5 L 148 191.5 L 149 190.5 L 149 176.5 L 150 175.5 L 153 118.5 L 154 117.5 Q 153.1 107.6 155 102 Z M 164 109 L 161 114 L 160 133 L 159 134 L 157 180 L 156 181 L 156 195 L 155 196 L 155 223 L 158 224 L 353 224 L 353 195 L 352 194 L 352 182 L 351 181 L 351 166 L 350 165 L 348 122 L 346 110 L 344 109 L 164 109 Z"/><path d="M 227.5 114 L 304.5 115 L 316.5 119 L 321 123.5 L 324 130.5 L 325 143.5 L 326 144.5 L 326 189.5 L 325 190.5 L 324 203.5 Q 321 211 314.5 215 L 308.5 217 L 299.5 217 L 298.5 218 L 209.5 218 L 208.5 217 L 196.5 216 Q 189 213 185 206.5 L 182 190.5 L 182 144.5 L 183 143.5 L 183 135.5 L 185 126.5 L 191.5 119 L 203.5 115 L 226.5 115 L 227.5 114 Z M 226 148 L 223 151 L 223 187 L 224 187 L 235 187 Q 237 186 236 183 L 233 180 L 231 179 L 231 162 L 230 161 L 230 159 L 236 153 L 236 151 Q 233 147 226 148 Z M 307 148 L 305 149 L 302 153 L 307 156 L 307 164 L 308 165 L 307 180 L 303 183 L 303 187 L 315 187 L 315 151 L 316 150 Q 313 147 307 148 Z M 273 163 L 273 169 L 274 169 L 294 169 L 295 164 L 273 163 Z M 198 172 L 195 175 L 193 182 Q 190 189 197 187 L 204 176 L 204 172 L 198 172 Z M 254 173 Q 250 174 251 179 Q 252 181 258 180 Q 260 179 259 175 Q 258 172 254 173 Z"/><path d="M 234.5 251 L 320.5 252 L 325 254.5 L 324 258 L 184.5 258 Q 183.5 258 184 253.5 L 185.5 252 L 233.5 252 L 234.5 251 Z"/><path d="M 136.5 291 L 148.5 291 L 149.5 292 L 287.5 292 L 289 293.5 L 292 308.5 L 294 341.5 L 295 342.5 L 295 359 L 113.5 359 L 113 357.5 L 112 355.5 L 114 346.5 L 130 300.5 L 136.5 291 Z M 142 300 Q 137 302 138 310 L 140 311 L 148 311 L 151 305 L 151 300 L 142 300 Z M 163 300 L 160 304 L 160 311 L 171 311 L 173 305 L 173 300 L 163 300 Z M 184 300 L 182 302 L 182 311 L 193 311 L 195 306 L 194 302 L 194 300 L 184 300 Z M 206 300 L 204 302 L 204 311 L 214 311 L 215 310 L 216 310 L 216 302 L 215 300 L 206 300 Z M 228 300 L 226 302 L 226 311 L 237 311 L 238 310 L 238 302 L 237 300 L 228 300 Z M 250 300 L 248 302 L 248 310 L 250 311 L 259 311 L 260 310 L 260 302 L 259 300 L 250 300 Z M 272 300 L 270 302 L 270 310 Q 273 312 281 311 Q 284 309 282 303 Q 280 298 272 300 Z M 135 320 L 131 325 L 131 332 L 142 332 L 145 327 L 145 322 L 144 320 L 135 320 Z M 156 320 Q 153 324 154 332 L 165 332 L 167 331 L 168 328 L 168 320 L 156 320 Z M 181 320 Q 176 322 177 331 L 179 332 L 189 332 Q 193 329 192 322 L 191 320 L 181 320 Z M 202 320 Q 199 323 200 331 L 202 332 L 213 332 L 215 326 L 214 323 L 214 320 L 202 320 Z M 226 320 L 224 322 L 224 331 L 226 332 L 237 332 L 238 331 L 238 321 Q 234 319 226 320 Z M 249 320 L 247 322 L 247 332 L 261 332 L 261 322 L 260 320 L 249 320 Z M 272 320 L 270 322 L 270 331 L 272 332 L 283 332 L 284 331 L 284 322 L 283 320 L 272 320 Z M 127 340 L 124 346 L 124 352 L 136 352 L 139 349 L 139 340 L 127 340 Z M 153 340 L 150 341 Q 147 344 148 351 L 150 352 L 162 352 L 164 346 L 164 340 L 153 340 Z M 176 340 L 173 344 L 173 352 L 185 352 Q 190 350 188 342 L 187 340 L 176 340 Z M 201 340 Q 195 343 197 351 L 200 352 L 211 352 Q 214 349 213 342 L 212 340 L 201 340 Z M 224 340 L 222 342 L 222 352 L 235 352 L 237 351 L 237 340 L 224 340 Z M 248 340 L 246 342 L 246 351 L 248 352 L 261 352 L 262 351 L 262 341 L 260 340 L 248 340 Z M 273 340 L 270 343 Q 269 350 274 352 L 286 352 L 286 343 L 284 340 L 273 340 Z"/><path d="M 340.5 291 L 372.5 292 L 375 294.5 L 394 346.5 L 395 359 L 339.5 359 L 338 357.5 L 327 310.5 L 325 294.5 L 327.5 292 L 339.5 292 L 340.5 291 Z M 335 300 Q 334 308 339 311 L 347 311 L 348 310 Q 350 303 346 302 L 346 300 L 335 300 Z M 357 300 Q 356 307 361 311 L 369 311 L 370 310 L 369 303 L 367 300 L 357 300 Z M 340 320 L 341 331 L 344 332 L 354 332 L 353 323 L 351 320 L 340 320 Z M 363 320 L 364 330 L 368 332 L 376 332 L 377 331 Q 378 323 374 322 L 374 320 L 363 320 Z M 344 340 Q 343 348 347 352 L 359 352 L 360 351 L 360 347 L 358 341 L 356 340 L 344 340 Z M 371 340 L 369 342 L 369 349 L 371 352 L 383 352 L 384 351 Q 385 343 381 342 L 381 340 L 371 340 Z"/></svg>